G04*
G04 #@! TF.GenerationSoftware,Altium Limited,Altium Designer,23.10.1 (27)*
G04*
G04 Layer_Physical_Order=2*
G04 Layer_Color=16711680*
%FSLAX44Y44*%
%MOMM*%
G71*
G04*
G04 #@! TF.SameCoordinates,07F531DC-FA92-4897-9D3F-F805C0A64ABC*
G04*
G04*
G04 #@! TF.FilePolarity,Positive*
G04*
G01*
G75*
%ADD13C,0.2540*%
%ADD28C,1.6764*%
%ADD29C,3.3000*%
%ADD30R,1.6764X1.6764*%
%ADD31C,2.0000*%
%ADD32C,3.5000*%
G36*
X1358900Y444500D02*
X1296101D01*
X1295422Y445770D01*
X1297033Y448181D01*
X1298468Y451646D01*
X1299200Y455325D01*
Y459075D01*
X1298468Y462754D01*
X1297033Y466219D01*
X1294949Y469337D01*
X1292297Y471989D01*
X1289179Y474073D01*
X1285714Y475508D01*
X1282035Y476240D01*
X1278285D01*
X1274606Y475508D01*
X1271141Y474073D01*
X1268023Y471989D01*
X1265371Y469337D01*
X1263287Y466219D01*
X1261852Y462754D01*
X1261120Y459075D01*
Y455325D01*
X1261852Y451646D01*
X1263287Y448181D01*
X1264898Y445770D01*
X1264219Y444500D01*
X952500D01*
Y446573D01*
X954176Y447022D01*
X956666Y448460D01*
X958700Y450494D01*
X960138Y452984D01*
X960882Y455762D01*
Y458638D01*
X960138Y461416D01*
X958700Y463906D01*
X956666Y465940D01*
X954176Y467378D01*
X952500Y467827D01*
Y952500D01*
X1276919D01*
X1277598Y951230D01*
X1275987Y948819D01*
X1274552Y945354D01*
X1273820Y941675D01*
Y937925D01*
X1274552Y934246D01*
X1275987Y930781D01*
X1278071Y927663D01*
X1280723Y925011D01*
X1283841Y922927D01*
X1287306Y921492D01*
X1290985Y920760D01*
X1294735D01*
X1298414Y921492D01*
X1301879Y922927D01*
X1304997Y925011D01*
X1307649Y927663D01*
X1309733Y930781D01*
X1311168Y934246D01*
X1311900Y937925D01*
Y941675D01*
X1311168Y945354D01*
X1309733Y948819D01*
X1308122Y951230D01*
X1308801Y952500D01*
X1358900D01*
Y444500D01*
D02*
G37*
%LPC*%
G36*
X1027598Y950722D02*
X1027430D01*
Y941070D01*
X1037082D01*
Y941238D01*
X1036338Y944016D01*
X1034900Y946506D01*
X1032866Y948540D01*
X1030376Y949978D01*
X1027598Y950722D01*
D02*
G37*
G36*
X1002198D02*
X1002030D01*
Y941070D01*
X1011682D01*
Y941238D01*
X1010938Y944016D01*
X1009500Y946506D01*
X1007466Y948540D01*
X1004976Y949978D01*
X1002198Y950722D01*
D02*
G37*
G36*
X1024890D02*
X1024722D01*
X1021944Y949978D01*
X1019454Y948540D01*
X1017420Y946506D01*
X1015982Y944016D01*
X1015238Y941238D01*
Y941070D01*
X1024890D01*
Y950722D01*
D02*
G37*
G36*
X999490D02*
X999322D01*
X996544Y949978D01*
X994054Y948540D01*
X992020Y946506D01*
X990582Y944016D01*
X989838Y941238D01*
Y941070D01*
X999490D01*
Y950722D01*
D02*
G37*
G36*
X1164082D02*
X1142238D01*
Y928878D01*
X1164082D01*
Y950722D01*
D02*
G37*
G36*
X1129198D02*
X1126322D01*
X1123544Y949978D01*
X1121054Y948540D01*
X1119020Y946506D01*
X1117582Y944016D01*
X1116838Y941238D01*
Y938362D01*
X1117582Y935584D01*
X1119020Y933094D01*
X1121054Y931060D01*
X1123544Y929622D01*
X1126322Y928878D01*
X1129198D01*
X1131976Y929622D01*
X1134466Y931060D01*
X1136500Y933094D01*
X1137938Y935584D01*
X1138682Y938362D01*
Y941238D01*
X1137938Y944016D01*
X1136500Y946506D01*
X1134466Y948540D01*
X1131976Y949978D01*
X1129198Y950722D01*
D02*
G37*
G36*
X1103798D02*
X1100922D01*
X1098144Y949978D01*
X1095654Y948540D01*
X1093620Y946506D01*
X1092182Y944016D01*
X1091438Y941238D01*
Y938362D01*
X1092182Y935584D01*
X1093620Y933094D01*
X1095654Y931060D01*
X1098144Y929622D01*
X1100922Y928878D01*
X1103798D01*
X1106576Y929622D01*
X1109066Y931060D01*
X1111100Y933094D01*
X1112538Y935584D01*
X1113282Y938362D01*
Y941238D01*
X1112538Y944016D01*
X1111100Y946506D01*
X1109066Y948540D01*
X1106576Y949978D01*
X1103798Y950722D01*
D02*
G37*
G36*
X1078398D02*
X1075522D01*
X1072744Y949978D01*
X1070254Y948540D01*
X1068220Y946506D01*
X1066782Y944016D01*
X1066038Y941238D01*
Y938362D01*
X1066782Y935584D01*
X1068220Y933094D01*
X1070254Y931060D01*
X1072744Y929622D01*
X1075522Y928878D01*
X1078398D01*
X1081176Y929622D01*
X1083666Y931060D01*
X1085700Y933094D01*
X1087138Y935584D01*
X1087882Y938362D01*
Y941238D01*
X1087138Y944016D01*
X1085700Y946506D01*
X1083666Y948540D01*
X1081176Y949978D01*
X1078398Y950722D01*
D02*
G37*
G36*
X1052998D02*
X1050122D01*
X1047344Y949978D01*
X1044854Y948540D01*
X1042820Y946506D01*
X1041382Y944016D01*
X1040638Y941238D01*
Y938362D01*
X1041382Y935584D01*
X1042820Y933094D01*
X1044854Y931060D01*
X1047344Y929622D01*
X1050122Y928878D01*
X1052998D01*
X1055776Y929622D01*
X1058266Y931060D01*
X1060300Y933094D01*
X1061738Y935584D01*
X1062482Y938362D01*
Y941238D01*
X1061738Y944016D01*
X1060300Y946506D01*
X1058266Y948540D01*
X1055776Y949978D01*
X1052998Y950722D01*
D02*
G37*
G36*
X1037082Y938530D02*
X1027430D01*
Y928878D01*
X1027598D01*
X1030376Y929622D01*
X1032866Y931060D01*
X1034900Y933094D01*
X1036338Y935584D01*
X1037082Y938362D01*
Y938530D01*
D02*
G37*
G36*
X1024890D02*
X1015238D01*
Y938362D01*
X1015982Y935584D01*
X1017420Y933094D01*
X1019454Y931060D01*
X1021944Y929622D01*
X1024722Y928878D01*
X1024890D01*
Y938530D01*
D02*
G37*
G36*
X1011682D02*
X1002030D01*
Y928878D01*
X1002198D01*
X1004976Y929622D01*
X1007466Y931060D01*
X1009500Y933094D01*
X1010938Y935584D01*
X1011682Y938362D01*
Y938530D01*
D02*
G37*
G36*
X999490D02*
X989838D01*
Y938362D01*
X990582Y935584D01*
X992020Y933094D01*
X994054Y931060D01*
X996544Y929622D01*
X999322Y928878D01*
X999490D01*
Y938530D01*
D02*
G37*
G36*
X976798Y950722D02*
X973922D01*
X971144Y949978D01*
X968654Y948540D01*
X966620Y946506D01*
X965182Y944016D01*
X964438Y941238D01*
Y938362D01*
X965182Y935584D01*
X966620Y933094D01*
X968654Y931060D01*
X971144Y929622D01*
X973922Y928878D01*
X976798D01*
X979576Y929622D01*
X982066Y931060D01*
X984100Y933094D01*
X985538Y935584D01*
X986282Y938362D01*
Y941238D01*
X985538Y944016D01*
X984100Y946506D01*
X982066Y948540D01*
X979576Y949978D01*
X976798Y950722D01*
D02*
G37*
G36*
X1256030Y736440D02*
X1255649D01*
X1252460Y735585D01*
X1249600Y733934D01*
X1247265Y731600D01*
X1245615Y728740D01*
X1245257Y727407D01*
X1243943D01*
X1243585Y728740D01*
X1241935Y731600D01*
X1239600Y733934D01*
X1236740Y735585D01*
X1233551Y736440D01*
X1230249D01*
X1227060Y735585D01*
X1224200Y733934D01*
X1221865Y731600D01*
X1220215Y728740D01*
X1219857Y727407D01*
X1218543D01*
X1218185Y728740D01*
X1216535Y731600D01*
X1214200Y733934D01*
X1211340Y735585D01*
X1208151Y736440D01*
X1204849D01*
X1201660Y735585D01*
X1198800Y733934D01*
X1196466Y731600D01*
X1194815Y728740D01*
X1194457Y727407D01*
X1193143D01*
X1192785Y728740D01*
X1191134Y731600D01*
X1188800Y733934D01*
X1185940Y735585D01*
X1182751Y736440D01*
X1179449D01*
X1176260Y735585D01*
X1173400Y733934D01*
X1171066Y731600D01*
X1169415Y728740D01*
X1168560Y725551D01*
Y722249D01*
X1169415Y719060D01*
X1171066Y716200D01*
X1173400Y713866D01*
X1176260Y712215D01*
X1177215Y711958D01*
Y533400D01*
X1177511Y531913D01*
X1178353Y530653D01*
X1215315Y493691D01*
Y467466D01*
X1214984Y467378D01*
X1212494Y465940D01*
X1210460Y463906D01*
X1209022Y461416D01*
X1208278Y458638D01*
Y455762D01*
X1209022Y452984D01*
X1210460Y450494D01*
X1212494Y448460D01*
X1214984Y447022D01*
X1217762Y446278D01*
X1220638D01*
X1223416Y447022D01*
X1225906Y448460D01*
X1227940Y450494D01*
X1229378Y452984D01*
X1230122Y455762D01*
Y458638D01*
X1229378Y461416D01*
X1227940Y463906D01*
X1225906Y465940D01*
X1223416Y467378D01*
X1223085Y467466D01*
Y495300D01*
X1222789Y496787D01*
X1221947Y498047D01*
X1184985Y535009D01*
Y711958D01*
X1185940Y712215D01*
X1188800Y713866D01*
X1191134Y716200D01*
X1192785Y719060D01*
X1193143Y720393D01*
X1194457D01*
X1194815Y719060D01*
X1196466Y716200D01*
X1198800Y713866D01*
X1201660Y712215D01*
X1202615Y711958D01*
Y533400D01*
X1202911Y531913D01*
X1203753Y530653D01*
X1240715Y493691D01*
Y467466D01*
X1240384Y467378D01*
X1237894Y465940D01*
X1235860Y463906D01*
X1234422Y461416D01*
X1233678Y458638D01*
Y455762D01*
X1234422Y452984D01*
X1235860Y450494D01*
X1237894Y448460D01*
X1240384Y447022D01*
X1243162Y446278D01*
X1246038D01*
X1248816Y447022D01*
X1251306Y448460D01*
X1253340Y450494D01*
X1254778Y452984D01*
X1255522Y455762D01*
Y458638D01*
X1254778Y461416D01*
X1253340Y463906D01*
X1251306Y465940D01*
X1248816Y467378D01*
X1248485Y467466D01*
Y495300D01*
X1248189Y496787D01*
X1247347Y498047D01*
X1210385Y535009D01*
Y711958D01*
X1211340Y712215D01*
X1214200Y713866D01*
X1216535Y716200D01*
X1218185Y719060D01*
X1218543Y720393D01*
X1219857D01*
X1220215Y719060D01*
X1221865Y716200D01*
X1224200Y713866D01*
X1227060Y712215D01*
X1230249Y711360D01*
X1233551D01*
X1236740Y712215D01*
X1239600Y713866D01*
X1241935Y716200D01*
X1243585Y719060D01*
X1243943Y720393D01*
X1245257D01*
X1245615Y719060D01*
X1247265Y716200D01*
X1249600Y713866D01*
X1252460Y712215D01*
X1255649Y711360D01*
X1256030D01*
Y723900D01*
Y736440D01*
D02*
G37*
G36*
X1329124Y743940D02*
X1328420D01*
Y725170D01*
X1347190D01*
Y725874D01*
X1346420Y729745D01*
X1344909Y733392D01*
X1342716Y736675D01*
X1339925Y739466D01*
X1336642Y741659D01*
X1332995Y743170D01*
X1329124Y743940D01*
D02*
G37*
G36*
X1258951Y736440D02*
X1258570D01*
Y725170D01*
X1269840D01*
Y725551D01*
X1268985Y728740D01*
X1267335Y731600D01*
X1265000Y733934D01*
X1262140Y735585D01*
X1258951Y736440D01*
D02*
G37*
G36*
X1113224Y743940D02*
X1112520D01*
Y725170D01*
X1131290D01*
Y725874D01*
X1130520Y729745D01*
X1129009Y733392D01*
X1126816Y736675D01*
X1124025Y739466D01*
X1120742Y741659D01*
X1117095Y743170D01*
X1113224Y743940D01*
D02*
G37*
G36*
X1325880D02*
X1325176D01*
X1321304Y743170D01*
X1317657Y741659D01*
X1314375Y739466D01*
X1311584Y736675D01*
X1309391Y733392D01*
X1307880Y729745D01*
X1307110Y725874D01*
Y725170D01*
X1325880D01*
Y743940D01*
D02*
G37*
G36*
X1109980D02*
X1109276D01*
X1105405Y743170D01*
X1101758Y741659D01*
X1098475Y739466D01*
X1095684Y736675D01*
X1093491Y733392D01*
X1091980Y729745D01*
X1091210Y725874D01*
Y725170D01*
X1109980D01*
Y743940D01*
D02*
G37*
G36*
X1269840Y722630D02*
X1258570D01*
Y711360D01*
X1258951D01*
X1262140Y712215D01*
X1265000Y713866D01*
X1267335Y716200D01*
X1268985Y719060D01*
X1269840Y722249D01*
Y722630D01*
D02*
G37*
G36*
X1347190D02*
X1328420D01*
Y703860D01*
X1329124D01*
X1332995Y704630D01*
X1336642Y706141D01*
X1339925Y708334D01*
X1342716Y711125D01*
X1344909Y714408D01*
X1346420Y718055D01*
X1347190Y721926D01*
Y722630D01*
D02*
G37*
G36*
X1325880D02*
X1307110D01*
Y721926D01*
X1307880Y718055D01*
X1309391Y714408D01*
X1311584Y711125D01*
X1314375Y708334D01*
X1317657Y706141D01*
X1321304Y704630D01*
X1325176Y703860D01*
X1325880D01*
Y722630D01*
D02*
G37*
G36*
X1131290D02*
X1112520D01*
Y703860D01*
X1113224D01*
X1117095Y704630D01*
X1120742Y706141D01*
X1124025Y708334D01*
X1126816Y711125D01*
X1129009Y714408D01*
X1130520Y718055D01*
X1131290Y721926D01*
Y722630D01*
D02*
G37*
G36*
X1109980D02*
X1091210D01*
Y721926D01*
X1091980Y718055D01*
X1093491Y714408D01*
X1095684Y711125D01*
X1098475Y708334D01*
X1101758Y706141D01*
X1105405Y704630D01*
X1109276Y703860D01*
X1109980D01*
Y722630D01*
D02*
G37*
G36*
X1169838Y468122D02*
X1169670D01*
Y458470D01*
X1179322D01*
Y458638D01*
X1178578Y461416D01*
X1177140Y463906D01*
X1175106Y465940D01*
X1172616Y467378D01*
X1169838Y468122D01*
D02*
G37*
G36*
X1167130D02*
X1166962D01*
X1164184Y467378D01*
X1161694Y465940D01*
X1159660Y463906D01*
X1158222Y461416D01*
X1157478Y458638D01*
Y458470D01*
X1167130D01*
Y468122D01*
D02*
G37*
G36*
X1195238D02*
X1192362D01*
X1189584Y467378D01*
X1187094Y465940D01*
X1185060Y463906D01*
X1183622Y461416D01*
X1182878Y458638D01*
Y455762D01*
X1183622Y452984D01*
X1185060Y450494D01*
X1187094Y448460D01*
X1189584Y447022D01*
X1192362Y446278D01*
X1195238D01*
X1198016Y447022D01*
X1200506Y448460D01*
X1202540Y450494D01*
X1203978Y452984D01*
X1204722Y455762D01*
Y458638D01*
X1203978Y461416D01*
X1202540Y463906D01*
X1200506Y465940D01*
X1198016Y467378D01*
X1195238Y468122D01*
D02*
G37*
G36*
X1179322Y455930D02*
X1169670D01*
Y446278D01*
X1169838D01*
X1172616Y447022D01*
X1175106Y448460D01*
X1177140Y450494D01*
X1178578Y452984D01*
X1179322Y455762D01*
Y455930D01*
D02*
G37*
G36*
X1167130D02*
X1157478D01*
Y455762D01*
X1158222Y452984D01*
X1159660Y450494D01*
X1161694Y448460D01*
X1164184Y447022D01*
X1166962Y446278D01*
X1167130D01*
Y455930D01*
D02*
G37*
G36*
X1144438Y468122D02*
X1141562D01*
X1138784Y467378D01*
X1136294Y465940D01*
X1134260Y463906D01*
X1132822Y461416D01*
X1132078Y458638D01*
Y455762D01*
X1132822Y452984D01*
X1134260Y450494D01*
X1136294Y448460D01*
X1138784Y447022D01*
X1141562Y446278D01*
X1144438D01*
X1147216Y447022D01*
X1149706Y448460D01*
X1151740Y450494D01*
X1153178Y452984D01*
X1153922Y455762D01*
Y458638D01*
X1153178Y461416D01*
X1151740Y463906D01*
X1149706Y465940D01*
X1147216Y467378D01*
X1144438Y468122D01*
D02*
G37*
G36*
X1119038D02*
X1116162D01*
X1113384Y467378D01*
X1110894Y465940D01*
X1108860Y463906D01*
X1107422Y461416D01*
X1106678Y458638D01*
Y455762D01*
X1107422Y452984D01*
X1108860Y450494D01*
X1110894Y448460D01*
X1113384Y447022D01*
X1116162Y446278D01*
X1119038D01*
X1121816Y447022D01*
X1124306Y448460D01*
X1126340Y450494D01*
X1127778Y452984D01*
X1128522Y455762D01*
Y458638D01*
X1127778Y461416D01*
X1126340Y463906D01*
X1124306Y465940D01*
X1121816Y467378D01*
X1119038Y468122D01*
D02*
G37*
G36*
X1093638D02*
X1090762D01*
X1087984Y467378D01*
X1085494Y465940D01*
X1083460Y463906D01*
X1082022Y461416D01*
X1081278Y458638D01*
Y455762D01*
X1082022Y452984D01*
X1083460Y450494D01*
X1085494Y448460D01*
X1087984Y447022D01*
X1090762Y446278D01*
X1093638D01*
X1096416Y447022D01*
X1098906Y448460D01*
X1100940Y450494D01*
X1102378Y452984D01*
X1103122Y455762D01*
Y458638D01*
X1102378Y461416D01*
X1100940Y463906D01*
X1098906Y465940D01*
X1096416Y467378D01*
X1093638Y468122D01*
D02*
G37*
G36*
X1068238D02*
X1065362D01*
X1062584Y467378D01*
X1060094Y465940D01*
X1058060Y463906D01*
X1056622Y461416D01*
X1055878Y458638D01*
Y455762D01*
X1056622Y452984D01*
X1058060Y450494D01*
X1060094Y448460D01*
X1062584Y447022D01*
X1065362Y446278D01*
X1068238D01*
X1071016Y447022D01*
X1073506Y448460D01*
X1075540Y450494D01*
X1076978Y452984D01*
X1077722Y455762D01*
Y458638D01*
X1076978Y461416D01*
X1075540Y463906D01*
X1073506Y465940D01*
X1071016Y467378D01*
X1068238Y468122D01*
D02*
G37*
G36*
X1042838D02*
X1039962D01*
X1037184Y467378D01*
X1034694Y465940D01*
X1032660Y463906D01*
X1031222Y461416D01*
X1030478Y458638D01*
Y455762D01*
X1031222Y452984D01*
X1032660Y450494D01*
X1034694Y448460D01*
X1037184Y447022D01*
X1039962Y446278D01*
X1042838D01*
X1045616Y447022D01*
X1048106Y448460D01*
X1050140Y450494D01*
X1051578Y452984D01*
X1052322Y455762D01*
Y458638D01*
X1051578Y461416D01*
X1050140Y463906D01*
X1048106Y465940D01*
X1045616Y467378D01*
X1042838Y468122D01*
D02*
G37*
G36*
X1026922D02*
X1005078D01*
Y446278D01*
X1026922D01*
Y468122D01*
D02*
G37*
G36*
X976798D02*
X973922D01*
X971144Y467378D01*
X968654Y465940D01*
X966620Y463906D01*
X965182Y461416D01*
X964438Y458638D01*
Y455762D01*
X965182Y452984D01*
X966620Y450494D01*
X968654Y448460D01*
X971144Y447022D01*
X973922Y446278D01*
X976798D01*
X979576Y447022D01*
X982066Y448460D01*
X984100Y450494D01*
X985538Y452984D01*
X986282Y455762D01*
Y458638D01*
X985538Y461416D01*
X984100Y463906D01*
X982066Y465940D01*
X979576Y467378D01*
X976798Y468122D01*
D02*
G37*
%LPD*%
D13*
X1219200Y457200D02*
Y495300D01*
X1181100Y533400D02*
Y723900D01*
Y533400D02*
X1219200Y495300D01*
X1206500Y533400D02*
Y723900D01*
X1244600Y457200D02*
Y495300D01*
X1206500Y533400D02*
X1244600Y495300D01*
D28*
X1102360Y939800D02*
D03*
X1076960D02*
D03*
X1127760D02*
D03*
X1026160D02*
D03*
X1000760D02*
D03*
X1051560D02*
D03*
X1092200Y457200D02*
D03*
X1117600D02*
D03*
X1041400D02*
D03*
X1066800D02*
D03*
X1244600D02*
D03*
X1219200D02*
D03*
X1168400D02*
D03*
X1143000D02*
D03*
X1193800D02*
D03*
X899160Y939800D02*
D03*
X873760D02*
D03*
X975360D02*
D03*
X822960D02*
D03*
X797560D02*
D03*
X848360D02*
D03*
Y457200D02*
D03*
X822960D02*
D03*
X899160D02*
D03*
X873760D02*
D03*
X949960D02*
D03*
X924560D02*
D03*
X975360D02*
D03*
D29*
X1292860Y939800D02*
D03*
X1280160Y457200D02*
D03*
X772160Y609600D02*
D03*
Y889000D02*
D03*
D30*
X1153160Y939800D02*
D03*
X1016000Y457200D02*
D03*
X924560Y939800D02*
D03*
X797560Y457200D02*
D03*
D31*
X1231900Y723900D02*
D03*
X1257300D02*
D03*
X1206500D02*
D03*
X1181100D02*
D03*
D32*
X1327150D02*
D03*
X1111250D02*
D03*
M02*
