G04*
G04 #@! TF.GenerationSoftware,Altium Limited,Altium Designer,23.10.1 (27)*
G04*
G04 Layer_Color=8388736*
%FSLAX44Y44*%
%MOMM*%
G71*
G04*
G04 #@! TF.SameCoordinates,07F531DC-FA92-4897-9D3F-F805C0A64ABC*
G04*
G04*
G04 #@! TF.FilePolarity,Negative*
G04*
G01*
G75*
%ADD18R,1.0532X1.4032*%
%ADD19R,1.3032X1.7032*%
%ADD20R,1.0532X1.1532*%
%ADD21R,1.1532X1.0532*%
%ADD22C,1.8796*%
%ADD23C,3.5032*%
%ADD24R,1.8796X1.8796*%
%ADD25C,2.2032*%
%ADD26C,3.7032*%
D18*
X1003300Y643750D02*
D03*
Y626250D02*
D03*
X1041400Y643750D02*
D03*
Y626250D02*
D03*
X1079500Y643750D02*
D03*
Y626250D02*
D03*
X1117600Y643750D02*
D03*
Y626250D02*
D03*
D19*
X1295400Y647700D02*
D03*
Y558700D02*
D03*
X1270000Y647700D02*
D03*
Y558700D02*
D03*
X1244600Y647700D02*
D03*
Y558700D02*
D03*
X1219200Y647700D02*
D03*
Y558700D02*
D03*
D20*
X1181100Y558800D02*
D03*
X1168600D02*
D03*
X1181100Y609600D02*
D03*
X1168600D02*
D03*
X1333500D02*
D03*
X1346000D02*
D03*
X1333500Y558800D02*
D03*
X1346000D02*
D03*
D21*
X1003300Y571500D02*
D03*
Y584000D02*
D03*
X1041400Y571500D02*
D03*
Y584000D02*
D03*
X1079500Y571700D02*
D03*
Y584200D02*
D03*
X1117600Y571500D02*
D03*
Y584000D02*
D03*
D22*
X1102360Y939800D02*
D03*
X1076960D02*
D03*
X1127760D02*
D03*
X1026160D02*
D03*
X1000760D02*
D03*
X1051560D02*
D03*
X1092200Y457200D02*
D03*
X1117600D02*
D03*
X1041400D02*
D03*
X1066800D02*
D03*
X1244600D02*
D03*
X1219200D02*
D03*
X1168400D02*
D03*
X1143000D02*
D03*
X1193800D02*
D03*
X899160Y939800D02*
D03*
X873760D02*
D03*
X975360D02*
D03*
X822960D02*
D03*
X797560D02*
D03*
X848360D02*
D03*
Y457200D02*
D03*
X822960D02*
D03*
X899160D02*
D03*
X873760D02*
D03*
X949960D02*
D03*
X924560D02*
D03*
X975360D02*
D03*
D23*
X1292860Y939800D02*
D03*
X1280160Y457200D02*
D03*
X772160Y609600D02*
D03*
Y889000D02*
D03*
D24*
X1153160Y939800D02*
D03*
X1016000Y457200D02*
D03*
X924560Y939800D02*
D03*
X797560Y457200D02*
D03*
D25*
X1231900Y723900D02*
D03*
X1257300D02*
D03*
X1206500D02*
D03*
X1181100D02*
D03*
D26*
X1327150D02*
D03*
X1111250D02*
D03*
M02*
